<svg xmlns="http://www.w3.org/2000/svg" viewBox="0 0 192 192" width="192" height="192">
  <rect width="192" height="192" rx="42" fill="#f2f2f7"/>
  <defs>
    <clipPath id="hc">
      <polygon points="96,14 137,38 137,86 96,110 55,86 55,38"/>
    </clipPath>
  </defs>
  <polygon points="96,14 137,38 137,86 96,110 55,86 55,38" fill="#2d1b3d"/>
  <g clip-path="url(#hc)">
    <rect x="62" y="78" width="10" height="22" rx="2" fill="#c8a96e" opacity="0.5"/>
    <rect x="76" y="64" width="10" height="36" rx="2" fill="#c8a96e" opacity="0.65"/>
    <rect x="90" y="48" width="10" height="52" rx="2" fill="#c8a96e" opacity="0.85"/>
    <rect x="104" y="56" width="10" height="44" rx="2" fill="#c8a96e" opacity="0.75"/>
    <rect x="118" y="36" width="10" height="64" rx="2" fill="#c8a96e"/>
    <polyline points="67,78 81,64 95,48 109,56 123,36" fill="none" stroke="#ffffff" stroke-width="1.8" stroke-linecap="round" stroke-linejoin="round" opacity="0.9"/>
    <circle cx="67" cy="78" r="2.5" fill="#ffffff" opacity="0.9"/>
    <circle cx="81" cy="64" r="2.5" fill="#ffffff" opacity="0.9"/>
    <circle cx="95" cy="48" r="2.5" fill="#ffffff" opacity="0.9"/>
    <circle cx="109" cy="56" r="2.5" fill="#ffffff" opacity="0.9"/>
    <circle cx="123" cy="36" r="2.5" fill="#ffffff" opacity="0.9"/>
  </g>
  <text x="96" y="148" text-anchor="middle" font-family="-apple-system,Helvetica Neue,sans-serif" font-size="16" font-weight="300" fill="#2d1b3d" letter-spacing="2">Milgrup</text>
</svg>